<svg xmlns="http://www.w3.org/2000/svg" width="23" height="16" viewBox="0 0 23 16">
  <defs>
    <style>
      .cls-1 {
        fill: #fff;
        fill-rule: evenodd;
      }
    </style>
  </defs>
  <path id="_2_hover_100_" data-name="2 hover 100%" class="cls-1" d="M7.621,15.261a0.821,0.821,0,0,0,1.158-.034A0.8,0.8,0,0,0,8.746,14.1L2.707,8.495l19.372-.56a0.8,0.8,0,0,0,.787-0.822,0.809,0.809,0,0,0-.834-0.785L2.66,6.888l5.7-5.934A0.808,0.808,0,0,0,8.329-.185a0.821,0.821,0,0,0-1.158.033L0.119,7.2A0.776,0.776,0,0,0,.152,8.328Z"/>
</svg>
