<svg xmlns="http://www.w3.org/2000/svg" width="21" height="12" viewBox="0 0 21 12">
  <defs>
    <style>
    </style>
  </defs>
  <path id="behance" fill='#fff'; class="cls-1" d="M-0.147.282H5.989c2.484,0,4.163.825,4.163,3.087A2.663,2.663,0,0,1,8.381,5.9a3,3,0,0,1,2.393,3.078c0,2.466-2.246,3.522-4.6,3.522H-0.147V0.282ZM2.474,5.275H5.624A1.473,1.473,0,0,0,7.377,3.829c0-1.156-.951-1.4-1.973-1.4H2.474V5.275Zm0,5.153H5.788c1.133,0,2.118-.339,2.118-1.6,0-1.241-.839-1.735-2.063-1.735H2.474v3.334ZM14.211,8.807c0.073,1.53.876,2,2.318,2,1.042,0,1.882-.175,2.046-0.72h2.282c-0.73,2.076-2.282,2.54-4.419,2.54A4.449,4.449,0,0,1,11.619,8a4.568,4.568,0,0,1,4.82-4.643c3.214,0,4.766,2.746,4.584,5.45H14.211Zm4.218-1.3c-0.237-1.224-.8-2.329-2.064-2.329a2.321,2.321,0,0,0-2.154,2.329h4.218Zm1.08-4.795H12.986V1.475H19.51V2.712Z"/>
</svg>
