<svg xmlns="http://www.w3.org/2000/svg" width="17" height="18" viewBox="0 0 17 18">
  <defs>
    <style>
    </style>
  </defs>
  <path id="google_plus" fill='#fff'; data-name="google plus" class="cls-1" d="M9.575,10.388c-1.922-1.3-2.64-1.922-1.409-2.957s2.2-1.873,2.2-3.8A3.6,3.6,0,0,0,8.7.729,3.8,3.8,0,0,0,10.548.554,6.728,6.728,0,0,0,11.47-.011H5.346C4.117-.011.71,1.319,0.71,4.423S4.245,8.2,5.527,8.147a1.378,1.378,0,0,0,.282,1.995c0.385,0.394.307,0.517-.153,0.517s-6.151.059-6.151,3.946S7.064,18.77,9.55,16.676,11.5,11.694,9.575,10.388ZM5.936,7.381c-3.05,0-4.434-6.8-.846-6.8C7.883,0.481,9.984,7.381,5.936,7.381ZM5.574,16.9c-2.534,0-3.893-1.207-3.893-3.007S3.528,11.2,6.987,11.2C7.924,11.891,9.6,12.729,9.6,14.407S8.107,16.9,5.574,16.9ZM14.865,0.034V2.245H17.17V3.392H14.865V5.608h-1.2V3.392H11.323V2.245h2.345V0.034h1.2Z"/>
</svg>
