<svg xmlns="http://www.w3.org/2000/svg" width="19" height="18" viewBox="0 0 19 18">
  <defs>
    <style>
    </style>
  </defs>
  <path id="instagram" fill='#fff' class="cls-1" d="M17.117,0H2.053A1.848,1.848,0,0,0,.17,1.8V16.2A1.848,1.848,0,0,0,2.053,18H17.117A1.848,1.848,0,0,0,19,16.2V1.8A1.848,1.848,0,0,0,17.117,0ZM9.585,5.4A3.7,3.7,0,0,1,13.351,9a3.7,3.7,0,0,1-3.766,3.6A3.7,3.7,0,0,1,5.819,9,3.7,3.7,0,0,1,9.585,5.4ZM2.524,16.2a0.435,0.435,0,0,1-.471-0.45V8.1H4.03a2.93,2.93,0,0,0-.094.9,5.546,5.546,0,0,0,5.649,5.4A5.546,5.546,0,0,0,15.234,9a2.93,2.93,0,0,0-.094-0.9h1.977v7.65a0.435,0.435,0,0,1-.471.45H2.524ZM17.117,4.049a0.435,0.435,0,0,1-.471.45H14.763a0.435,0.435,0,0,1-.471-0.45v-1.8a0.435,0.435,0,0,1,.471-0.45h1.883a0.435,0.435,0,0,1,.471.45v1.8Z"/>
</svg>
