<svg xmlns="http://www.w3.org/2000/svg" width="18" height="18" viewBox="0 0 18 18">
  <defs>
    <style>
    </style>
  </defs>
  <path id="pinterest" fill='#fff' class="cls-1" d="M9.09,0.021A9.206,9.206,0,0,0-.325,9a8.987,8.987,0,0,0,5.688,8.251,7.564,7.564,0,0,1,.166-2.05c0.182-.731,1.216-4.911,1.216-4.911a3.347,3.347,0,0,1-.3-1.428A2.093,2.093,0,0,1,8.264,6.533,1.231,1.231,0,0,1,9.539,7.887a18.688,18.688,0,0,1-.834,3.2A1.416,1.416,0,0,0,10.2,12.822c1.789,0,2.995-2.194,2.995-4.795,0-1.976-1.393-3.454-3.93-3.454A4.379,4.379,0,0,0,4.608,8.891a2.529,2.529,0,0,0,.624,1.769,0.424,0.424,0,0,1,.136.5c-0.046.165-.148,0.565-0.192,0.723a0.328,0.328,0,0,1-.474.225A3.441,3.441,0,0,1,2.767,8.668c0-2.562,2.264-5.633,6.753-5.633,3.609,0,5.982,2.491,5.982,5.165,0,3.537-2.061,6.178-5.1,6.178A2.748,2.748,0,0,1,8.1,13.256s-0.549,2.075-.664,2.477A7.409,7.409,0,0,1,6.5,17.64a9.842,9.842,0,0,0,2.594.345A9.206,9.206,0,0,0,18.5,9,9.206,9.206,0,0,0,9.09.021Z"/>
</svg>
