<svg xmlns="http://www.w3.org/2000/svg" width="18" height="15" viewBox="0 0 18 15">
  <defs>
    <style>
    </style>
  </defs>
  <path id="twitter" fill='#fff'; class="cls-1" d="M18.381,1.911a7.075,7.075,0,0,1-2.156.583A3.97,3.97,0,0,0,17.844.481a6.5,6.5,0,0,1-2.424.819h0A3.966,3.966,0,0,0,12.613.156,3.8,3.8,0,0,0,8.729,3.863a3.493,3.493,0,0,0,.1.825h0A11.412,11.412,0,0,1,.6.844a3.608,3.608,0,0,0,1.178,4.9,2.582,2.582,0,0,1-1.7-.417,3.6,3.6,0,0,0,3,3.62,3.187,3.187,0,0,1-1.617.117c0.124,1.091,1.724,2.517,3.472,2.517a6.556,6.556,0,0,1-5.38,1.537,12.073,12.073,0,0,0,6.076,1.64c6.267,0,11.134-4.846,10.872-10.823,0-.007,0-0.014,0-0.02s0-.034,0-0.047,0-.037,0-0.056A6.528,6.528,0,0,0,18.381,1.911Z"/>
</svg>
