<svg xmlns="http://www.w3.org/2000/svg" width="20" height="20" viewBox="0 0 20 20">
  <defs>
    <style>
      .cls-1 {
        fill: #020202;
        fill-rule: evenodd;
      }
    </style>
  </defs>
  <path id="icon" class="cls-1" d="M17.5,8.812V1.875A1.875,1.875,0,0,0,15.625,0H4.375A1.875,1.875,0,0,0,2.5,1.875V8.812A3.131,3.131,0,0,0,0,11.875V20H1.25V17.5h17.5V20H20V11.875A3.131,3.131,0,0,0,17.5,8.812ZM3.75,1.875A0.625,0.625,0,0,1,4.375,1.25h11.25a0.625,0.625,0,0,1,.625.625V8.75h-2.5V6.875A1.875,1.875,0,0,0,11.875,5H8.125A1.875,1.875,0,0,0,6.25,6.875V8.75H3.75V1.875Zm8.75,5V8.75h-5V6.875A0.625,0.625,0,0,1,8.125,6.25h3.75A0.625,0.625,0,0,1,12.5,6.875Zm6.25,9.375H1.25V15h17.5v1.25Zm0-2.5H1.25V11.875A1.875,1.875,0,0,1,3.125,10h13.75a1.875,1.875,0,0,1,1.875,1.875V13.75ZM5,2.5H6.25V3.75H5V2.5Zm2.5,0H8.75V3.75H7.5V2.5Zm3.75,0H12.5V3.75H11.25V2.5Zm2.5,0H15V3.75H13.75V2.5Z"/>
</svg>
