<svg xmlns="http://www.w3.org/2000/svg" width="18" height="20" viewBox="0 0 18 20">
  <defs>
    <style>
      .cls-1 {
        fill: #020202;
        fill-rule: evenodd;
      }
    </style>
  </defs>
  <path id="icon" class="cls-1" d="M16.714,10V8.6L14.54,4.375H12.214V3.125A3.175,3.175,0,0,0,9,0H3.214A3.175,3.175,0,0,0,0,3.125V20H1.286V3.125A1.9,1.9,0,0,1,3.214,1.25H9a1.9,1.9,0,0,1,1.929,1.875v1.25H8.6L6.429,8.6V10H5.143v1.25H18V10H16.714Zm-1.286,0H7.714V8.9L9.4,5.625h4.348L15.429,8.9V10ZM7.714,12.5H9v1.25H7.714V12.5Zm0,2.5H9v2.5H7.714V15Zm0,3.75H9V20H7.714V18.75Zm3.214-6.25h1.286v5H10.929v-5Zm0,6.25h1.286V20H10.929V18.75Zm3.214-6.25h1.286v1.25H14.143V12.5Zm0,2.5h1.286v1.25H14.143V15Zm0,2.5h1.286V20H14.143V17.5Z"/>
</svg>
