<svg xmlns="http://www.w3.org/2000/svg" width="11" height="14" viewBox="0 0 11 14">
  <defs>
    <style>
      .cls-1 {
        fill: #258230;
        fill-rule: evenodd;
      }
    </style>
  </defs>
  <path id="lock_icon" data-name="lock icon" class="cls-1" d="M10.694,5.25H9.778V4.084A4.189,4.189,0,0,0,5.5,0,4.189,4.189,0,0,0,1.222,4.084V5.25H0.306A0.3,0.3,0,0,0,0,5.542v7.292A1.2,1.2,0,0,0,1.222,14H9.778A1.2,1.2,0,0,0,11,12.833V5.542A0.3,0.3,0,0,0,10.694,5.25Zm-4.28,6.093a0.283,0.283,0,0,1-.076.227,0.312,0.312,0,0,1-.228.1H4.889a0.312,0.312,0,0,1-.228-0.1,0.283,0.283,0,0,1-.076-0.227L4.778,9.688a1.138,1.138,0,0,1-.5-0.938,1.224,1.224,0,0,1,2.444,0,1.138,1.138,0,0,1-.5.938ZM7.944,5.25H3.056V4.084A2.394,2.394,0,0,1,5.5,1.75,2.394,2.394,0,0,1,7.944,4.084V5.25Z"/>
</svg>
