<?xml version="1.0" standalone="no"?>
<!DOCTYPE svg PUBLIC "-//W3C//DTD SVG 20010904//EN"
 "http://www.w3.org/TR/2001/REC-SVG-20010904/DTD/svg10.dtd">
<svg version="1.0" xmlns="http://www.w3.org/2000/svg"
 width="129.000000pt" height="22.000000pt" viewBox="0 0 129.000000 22.000000"
 preserveAspectRatio="xMidYMid meet">

<g transform="translate(0.000000,22.000000) scale(0.100000,-0.100000)"
fill="#000000" stroke="none">
<path d="M690 110 c0 -40 4 -70 10 -70 6 0 10 30 10 70 0 40 -4 70 -10 70 -6
0 -10 -30 -10 -70z"/>
<path d="M340 105 c0 -51 3 -65 15 -65 8 0 15 9 15 20 0 11 7 20 15 20 8 0 19
-9 25 -20 6 -11 17 -20 26 -20 13 0 12 3 -1 24 -11 17 -13 25 -4 28 16 5 15
58 -2 69 -8 5 -31 9 -51 9 l-38 0 0 -65z m75 20 c0 -13 -8 -21 -22 -23 -19 -3
-23 1 -23 23 0 22 4 26 23 23 14 -2 22 -10 22 -23z"/>
<path d="M740 105 l0 -65 45 0 c25 0 45 5 45 10 0 6 -16 10 -35 10 -28 0 -35
4 -35 20 0 16 7 20 35 20 19 0 35 5 35 10 0 6 -16 10 -35 10 -24 0 -35 5 -35
15 0 10 11 15 35 15 19 0 35 5 35 10 0 6 -20 10 -45 10 l-45 0 0 -65z"/>
<path d="M947 148 c-2 -7 -1 -33 2 -58 5 -37 10 -46 29 -48 25 -4 30 13 7 22
-8 3 -15 17 -15 31 0 16 6 25 15 25 8 0 15 5 15 10 0 6 -7 10 -15 10 -8 0 -15
5 -15 10 0 14 -17 12 -23 -2z"/>
<path d="M1127 148 c-2 -7 -1 -33 2 -58 5 -37 10 -46 29 -48 25 -4 30 13 7 22
-8 3 -15 17 -15 31 0 16 6 25 15 25 8 0 15 5 15 10 0 6 -7 10 -15 10 -8 0 -15
5 -15 10 0 14 -17 12 -23 -2z"/>
<path d="M482 128 c-17 -17 -15 -63 2 -78 17 -14 58 -10 63 6 2 7 -5 10 -20 7
-14 -3 -28 0 -31 6 -5 7 5 11 28 11 28 0 36 4 36 18 0 37 -51 57 -78 30z m53
-18 c4 -6 -5 -10 -20 -10 -15 0 -24 4 -20 10 3 6 12 10 20 10 8 0 17 -4 20
-10z"/>
<path d="M590 130 c-12 -8 -9 -10 12 -10 15 0 30 -4 33 -10 3 -6 -4 -10 -18
-10 -14 0 -30 -7 -37 -15 -19 -22 4 -43 45 -42 33 1 35 3 35 37 0 53 -31 75
-70 50z m45 -60 c-8 -13 -32 -13 -40 0 -4 6 5 10 20 10 15 0 24 -4 20 -10z"/>
<path d="M861 127 c-9 -12 -8 -18 4 -31 9 -9 21 -16 26 -16 5 0 9 -5 9 -11 0
-7 -10 -9 -25 -5 -14 4 -25 2 -25 -4 0 -5 11 -12 25 -16 47 -12 70 37 24 51
-26 8 -24 29 2 22 13 -3 19 -1 16 6 -5 18 -42 20 -56 4z"/>
<path d="M1030 130 c-12 -8 -9 -10 12 -10 36 0 45 -18 11 -22 -22 -2 -28 -8
-28 -28 0 -22 5 -25 38 -27 36 -1 37 0 37 36 0 54 -31 76 -70 51z m45 -60 c-8
-13 -35 -13 -35 0 0 6 9 10 21 10 11 0 17 -4 14 -10z"/>
<path d="M1204 115 c-15 -23 -15 -27 0 -50 17 -25 31 -30 60 -19 22 8 10 23
-13 17 -10 -3 -22 0 -25 6 -5 7 5 11 28 11 40 0 47 17 20 44 -23 23 -51 20
-70 -9z m61 -5 c4 -6 -5 -10 -20 -10 -15 0 -24 4 -20 10 3 6 12 10 20 10 8 0
17 -4 20 -10z"/>
</g>
</svg>
